<svg xmlns="http://www.w3.org/2000/svg" viewBox="0 0 363.51 131.55"><defs><style>.cls-1{fill:#c5323a;}.cls-2{fill:#231815;}</style></defs><title>logo_ms</title><g id="レイヤー_2" data-name="レイヤー 2"><g id="レイヤー_1-2" data-name="レイヤー 1"><polygon class="cls-1" points="333.54 26.38 320.18 35.36 306.72 26.38 276.85 26.38 300.99 44.02 302.46 39.5 290.46 30.84 305.27 30.84 320.18 40.75 334.99 30.84 349.89 30.84 337.83 39.54 339.31 44.06 363.51 26.38 333.54 26.38"/><polygon class="cls-1" points="320.2 46.26 320.63 45.95 320.18 46.25 320.2 46.26"/><polygon class="cls-1" points="332.67 37.9 320.63 45.95 320.2 46.26 320.18 46.25 320.18 46.25 307.62 37.9 294.65 77.25 320.17 56.5 345.71 77.26 332.67 37.9"/><polygon class="cls-1" points="320.14 0 313.27 20.86 313.27 20.86 320.14 0"/><polygon class="cls-1" points="320.23 29.84 320.78 29.43 320.21 29.82 320.23 29.84"/><polygon class="cls-1" points="320.14 0 312.09 24.44 320.18 29.84 320.21 29.82 328.24 24.42 320.14 0"/><polygon class="cls-2" points="8.53 45.75 25.89 63.17 43.25 45.75 43.25 72.61 50.78 72.61 50.78 27.6 25.89 52.52 1 27.6 1 72.61 8.53 72.61 8.53 45.75"/><polygon class="cls-2" points="241.85 44.59 272.03 74.15 272.03 29.14 265.19 29.14 265.19 57.16 235.01 27.61 235.01 72.61 241.85 72.61 241.85 44.59"/><polygon class="cls-2" points="151.6 114.57 121.41 85.01 121.41 130.01 128.25 130.01 128.25 102 158.44 131.55 158.44 86.55 151.6 86.55 151.6 114.57"/><path class="cls-2" d="M148.83,50.84v-.13c0-12.25-9.45-21.64-23.14-21.64H109.46V72.61h16.23C139.38,72.61,148.83,63.09,148.83,50.84ZM117.11,36h8.58c9.15,0,15.12,6.28,15.12,14.81V51c0,8.52-6,14.68-15.12,14.68h-8.58Z"/><polygon class="cls-2" points="182.94 65.76 161.11 65.76 161.11 54.07 182.25 54.07 182.25 47.23 161.11 47.23 161.11 35.91 183.01 35.91 183.01 29.07 154.41 29.07 154.41 72.61 182.94 72.61 182.94 65.76"/><path class="cls-2" d="M198.46,57.43H208l10.7,15.18h9.08L216.06,56.12c6-1.74,10.33-6,10.33-13.18v-.13a13.16,13.16,0,0,0-3.61-9.39c-2.8-2.74-7.09-4.35-12.57-4.35h-19.4V72.61h7.65Zm0-21.4h11.13c5.66,0,9,2.55,9,7.22v.12c0,4.42-3.48,7.28-9,7.28H198.46Z"/><path class="cls-2" d="M79.8,74.73A24.09,24.09,0,1,0,55.72,50.64,24.09,24.09,0,0,0,79.8,74.73Zm0-40.21A16.13,16.13,0,1,1,63.72,50.64,16.13,16.13,0,0,1,79.84,34.52Z"/><path class="cls-2" d="M19.78,105c-8.4-2-10.39-3.49-10.39-6.84V98c0-2.86,2.61-5.16,7.09-5.16,4,0,7.9,1.55,11.82,4.48l4.11-5.79a24.18,24.18,0,0,0-15.8-5.47C8,86.08,1.74,91.24,1.74,98.7v.13c0,8,5.23,10.76,14.49,13,8.09,1.86,9.83,3.54,9.83,6.65v.13c0,3.23-3,5.47-7.71,5.47-5.35,0-9.58-2-13.75-5.66L0,123.9a26.83,26.83,0,0,0,18.16,7c9.14,0,15.55-4.85,15.55-13v-.12C33.71,110.52,29,107.23,19.78,105Z"/><polygon class="cls-2" points="73.75 86.7 38.42 86.7 38.42 93.79 52.23 93.79 52.23 130.24 59.94 130.24 59.94 93.79 73.75 93.79 73.75 86.7"/><path class="cls-2" d="M205.4,108.35c0-12.26-9.45-21.65-23.14-21.65H166v43.54h16.23c13.69,0,23.14-9.52,23.14-21.77Zm-8,.24c0,8.53-6,14.68-15.12,14.68h-8.58V93.67h8.58c9.15,0,15.12,6.28,15.12,14.8Z"/><path class="cls-2" d="M291.53,100.57v-.12a13.19,13.19,0,0,0-3.61-9.4c-2.8-2.73-7.09-4.35-12.56-4.35H256v43.54h7.65V115.06h9.58l10.7,15.18H293L281.2,113.76C287.24,112,291.53,107.72,291.53,100.57Zm-27.93,7.71V93.67h11.14c5.66,0,9,2.55,9,7.21V101c0,4.41-3.48,7.27-8.95,7.27Z"/><path class="cls-2" d="M316.39,86.7H300.15v43.54h16.24c13.68,0,23.13-9.52,23.13-21.77v-.12C339.52,96.09,330.07,86.7,316.39,86.7Zm15.11,21.89c0,8.53-6,14.68-15.11,14.68H307.8V93.67h8.59c9.14,0,15.11,6.28,15.11,14.8Z"/><path class="cls-2" d="M70,130.24h7.84l4.8-9.42h19.88l4.8,9.42h8.09L92.55,85.14Zm16.09-16.19,6.49-12.74L99,114.05Z"/><path class="cls-2" d="M205,130.24h7.84l4.8-9.42H237.5l4.8,9.42h8.09l-22.83-45.1Zm16.09-16.19,6.49-12.74,6.49,12.74Z"/></g></g></svg>